<svg width="14" height="23" viewBox="0 0 14 23" fill="none" xmlns="http://www.w3.org/2000/svg">
<g clip-path="url(#clip0_1_647)">
<path fill-rule="evenodd" clip-rule="evenodd" d="M0.310303 7.99639C0.310303 11.2428 2.66863 13.9425 5.75301 14.4899V9.77364H4.1202V7.95993H5.75301V6.50864C5.75301 4.87614 6.80509 3.96956 8.29312 3.96956C8.76446 3.96956 9.27286 4.04193 9.74413 4.1143V5.78327H8.90979C8.11134 5.78327 7.9301 6.18214 7.9301 6.69039V7.95993H9.67173L9.38165 9.77364H7.9301V14.4899C11.0145 13.9425 13.3728 11.2434 13.3728 7.99639C13.3728 4.38476 10.4337 1.42993 6.84155 1.42993C3.24937 1.42993 0.310303 4.38476 0.310303 7.99639Z" fill="white" fill-opacity="0.9"/>
</g>
<defs>
<clipPath id="clip0_1_647">
<rect width="13.0625" height="13.06" fill="white" transform="translate(0.310303 1.42993)"/>
</clipPath>
</defs>
</svg>
