<svg width="15" height="23" viewBox="0 0 15 23" fill="none" xmlns="http://www.w3.org/2000/svg">
<g clip-path="url(#clip0_1_650)">
<path d="M7.37092 5.16567C6.08557 5.16567 5.03663 6.21464 5.03663 7.5C5.03663 8.78536 6.08557 9.83432 7.37092 9.83432C8.65626 9.83432 9.7052 8.78536 9.7052 7.5C9.7052 6.21464 8.65626 5.16567 7.37092 5.16567ZM14.372 7.5C14.372 6.53335 14.3807 5.57545 14.3265 4.61055C14.2722 3.48979 14.0165 2.49512 13.197 1.67557C12.3757 0.854259 11.3828 0.600338 10.2621 0.546052C9.29543 0.491765 8.33755 0.500521 7.37267 0.500521C6.40603 0.500521 5.44815 0.491765 4.48327 0.546052C3.36254 0.600338 2.36788 0.856011 1.54835 1.67557C0.727056 2.49687 0.473139 3.48979 0.418854 4.61055C0.364568 5.5772 0.373324 6.5351 0.373324 7.5C0.373324 8.4649 0.364568 9.42455 0.418854 10.3894C0.473139 11.5102 0.728808 12.5049 1.54835 13.3245C2.36963 14.1457 3.36254 14.3997 4.48327 14.4539C5.44991 14.5083 6.40778 14.4995 7.37267 14.4995C8.3393 14.4995 9.29718 14.5083 10.2621 14.4539C11.3828 14.3997 12.3775 14.1439 13.197 13.3245C14.0183 12.5031 14.2722 11.5102 14.3265 10.3894C14.3825 9.42455 14.372 8.46665 14.372 7.5ZM7.37092 11.0917C5.38337 11.0917 3.77931 9.48759 3.77931 7.5C3.77931 5.51241 5.38337 3.90832 7.37092 3.90832C9.35848 3.90832 10.9625 5.51241 10.9625 7.5C10.9625 9.48759 9.35848 11.0917 7.37092 11.0917ZM11.1096 4.60004C10.6456 4.60004 10.2708 4.22528 10.2708 3.76122C10.2708 3.29716 10.6456 2.92241 11.1096 2.92241C11.5737 2.92241 11.9484 3.29716 11.9484 3.76122C11.9486 3.87142 11.927 3.98055 11.8849 4.08239C11.8428 4.18422 11.781 4.27674 11.7031 4.35467C11.6251 4.43259 11.5326 4.49436 11.4308 4.53647C11.329 4.57857 11.2198 4.60018 11.1096 4.60004Z" fill="white" fill-opacity="0.9"/>
</g>
<defs>
<clipPath id="clip0_1_650">
<rect width="14" height="14" fill="white" transform="translate(0.372803 0.5)"/>
</clipPath>
</defs>
</svg>
