<svg width="14" height="23" viewBox="0 0 14 23" fill="none" xmlns="http://www.w3.org/2000/svg">
<g clip-path="url(#clip0_1_656)">
<path fill-rule="evenodd" clip-rule="evenodd" d="M0.372803 1.62003C0.372803 1.32298 0.490806 1.0381 0.700852 0.828049C0.910898 0.618003 1.19578 0.500002 1.49283 0.500002H12.6578C12.805 0.499761 12.9508 0.528558 13.0869 0.584744C13.2229 0.640931 13.3466 0.723403 13.4507 0.827439C13.5549 0.931475 13.6375 1.05504 13.6938 1.19104C13.7501 1.32704 13.7791 1.47282 13.779 1.62003V12.7849C13.7792 12.9322 13.7503 13.078 13.694 13.2141C13.6378 13.3501 13.5553 13.4738 13.4512 13.5779C13.3471 13.6821 13.2235 13.7647 13.0875 13.821C12.9514 13.8773 12.8056 13.9063 12.6584 13.9062H1.49283C1.3457 13.9062 1.2 13.8772 1.06407 13.8209C0.928147 13.7645 0.804649 13.682 0.700636 13.5779C0.596624 13.4738 0.514136 13.3503 0.457885 13.2143C0.401634 13.0784 0.372723 12.9327 0.372803 12.7855V1.62003ZM5.67922 5.61143H7.49455V6.52305C7.75658 5.99899 8.42689 5.52734 9.43418 5.52734C11.3653 5.52734 11.8229 6.57119 11.8229 8.48645V12.0342H9.86867V8.92276C9.86867 7.83199 9.60664 7.21652 8.9412 7.21652C8.018 7.21652 7.63409 7.88013 7.63409 8.92276V12.0342H5.67922V5.61143ZM2.32767 11.9507H4.28254V5.52734H2.32767V11.9507ZM4.56224 3.43231C4.56593 3.59969 4.53614 3.76612 4.47464 3.92183C4.41313 4.07754 4.32114 4.2194 4.20407 4.33908C4.087 4.45876 3.9472 4.55385 3.79288 4.61876C3.63856 4.68368 3.47283 4.71712 3.30541 4.71712C3.13799 4.71712 2.97226 4.68368 2.81794 4.61876C2.66362 4.55385 2.52382 4.45876 2.40675 4.33908C2.28967 4.2194 2.19769 4.07754 2.13618 3.92183C2.07468 3.76612 2.04489 3.59969 2.04858 3.43231C2.05581 3.10377 2.1914 2.79112 2.42632 2.56132C2.66123 2.33153 2.97679 2.20285 3.30541 2.20285C3.63403 2.20285 3.94959 2.33153 4.1845 2.56132C4.41941 2.79112 4.55501 3.10377 4.56224 3.43231Z" fill="white" fill-opacity="0.9"/>
</g>
<defs>
<clipPath id="clip0_1_656">
<rect width="13.4062" height="13.4062" fill="white" transform="translate(0.372803 0.5)"/>
</clipPath>
</defs>
</svg>
