<svg width="14" height="23" viewBox="0 0 14 23" fill="none" xmlns="http://www.w3.org/2000/svg">
<g clip-path="url(#clip0_1_659)">
<path d="M12.0819 3.68524C11.9814 3.6333 11.8835 3.57634 11.7887 3.5146C11.5129 3.3323 11.26 3.11749 11.0355 2.87482C10.4738 2.23224 10.2641 1.58036 10.1868 1.12396H10.1899C10.1254 0.745114 10.152 0.5 10.1561 0.5H7.59777V10.3908C7.59777 10.5236 7.59777 10.6549 7.59218 10.7846C7.59218 10.8007 7.59063 10.8156 7.5897 10.833C7.5897 10.8401 7.5897 10.8476 7.58815 10.855V10.8606C7.56119 11.2155 7.4474 11.5582 7.25682 11.8589C7.06623 12.1595 6.80469 12.4087 6.49519 12.5845C6.17263 12.768 5.80779 12.8642 5.43668 12.8637C4.24473 12.8637 3.27869 11.8919 3.27869 10.6918C3.27869 9.49167 4.24473 8.5199 5.43668 8.5199C5.66231 8.51969 5.88655 8.55518 6.10108 8.62508L6.10418 6.02066C5.45293 5.93655 4.79131 5.9883 4.16105 6.17265C3.53081 6.35698 2.94561 6.66993 2.44237 7.09172C2.00143 7.47478 1.63072 7.93184 1.34693 8.44233C1.23894 8.62849 0.831485 9.37656 0.782145 10.5907C0.751112 11.2797 0.958098 11.9937 1.05678 12.2888V12.295C1.11884 12.4687 1.35935 13.0617 1.75128 13.5615C2.06732 13.9625 2.44072 14.3146 2.85945 14.6068V14.6006L2.86566 14.6068C4.10415 15.4482 5.47733 15.393 5.47733 15.393C5.71504 15.3834 6.51133 15.393 7.41561 14.9646C8.41858 14.4896 8.98956 13.7818 8.98956 13.7818C9.35435 13.3589 9.64441 12.877 9.8473 12.3567C10.0788 11.7483 10.1561 11.0185 10.1561 10.7269V5.47955C10.1871 5.49817 10.6005 5.77152 10.6005 5.77152C10.6005 5.77152 11.196 6.15315 12.125 6.40168C12.7917 6.57853 13.6897 6.61576 13.6897 6.61576V4.0765C13.375 4.11063 12.736 4.01135 12.0819 3.68524Z" fill="white" fill-opacity="0.9"/>
</g>
<defs>
<clipPath id="clip0_1_659">
<rect width="12.9107" height="14.8938" fill="white" transform="translate(0.779007 0.5)"/>
</clipPath>
</defs>
</svg>
