<svg width="22" height="16" viewBox="0 0 22 16" fill="none" xmlns="http://www.w3.org/2000/svg">
<g clip-path="url(#clip0_1_366)">
<path d="M11.0186 6.91333C10.9519 6.90666 10.8719 6.90666 10.7986 6.91333C9.21152 6.86 7.95123 5.56 7.95123 3.96C7.95123 2.32666 9.27153 1 10.9119 1C12.5456 1 13.8726 2.32666 13.8726 3.96C13.8659 5.56 12.6057 6.86 11.0186 6.91333Z" stroke="black" stroke-width="1.2" stroke-linecap="round" stroke-linejoin="round"/>
<path d="M7.57448 9.82833C5.96077 10.9083 5.96077 12.6683 7.57448 13.7417C9.40823 14.9683 12.4156 14.9683 14.2494 13.7417C15.863 12.6617 15.863 10.9017 14.2494 9.82833C12.4222 8.60833 9.4149 8.60833 7.57448 9.82833Z" stroke="black" stroke-width="1.2" stroke-linecap="round" stroke-linejoin="round"/>
</g>
<defs>
<clipPath id="clip0_1_366">
<rect width="21.0954" height="15.6617" fill="white" transform="translate(0.364197)"/>
</clipPath>
</defs>
</svg>
