<svg width="15" height="23" viewBox="0 0 15 23" fill="none" xmlns="http://www.w3.org/2000/svg">
<g clip-path="url(#clip0_1_653)">
<path d="M8.54165 7.37823L6.90395 6.61406C6.76103 6.54771 6.64363 6.62208 6.64363 6.78031V8.21969C6.64363 8.37792 6.76103 8.45229 6.90395 8.38594L8.54093 7.62177C8.68457 7.55469 8.68457 7.44531 8.54165 7.37823ZM7.3728 0.5C3.50676 0.5 0.372803 3.63396 0.372803 7.5C0.372803 11.366 3.50676 14.5 7.3728 14.5C11.2388 14.5 14.3728 11.366 14.3728 7.5C14.3728 3.63396 11.2388 0.5 7.3728 0.5ZM7.3728 10.3438C3.78968 10.3438 3.72697 10.0207 3.72697 7.5C3.72697 4.97927 3.78968 4.65625 7.3728 4.65625C10.9559 4.65625 11.0186 4.97927 11.0186 7.5C11.0186 10.0207 10.9559 10.3438 7.3728 10.3438Z" fill="white" fill-opacity="0.9"/>
</g>
<defs>
<clipPath id="clip0_1_653">
<rect width="14" height="14" fill="white" transform="translate(0.372803 0.5)"/>
</clipPath>
</defs>
</svg>
